<svg xmlns="http://www.w3.org/2000/svg" width="149" height="49" viewBox="0 0 149 49" fill="none"><g id="Download_on_the_App_Store_Badge_US-UK_RGB_blk_092917"><g id="Group"><g id="Group_2"><path id="Path" d="M9.56308 48.6064C9.17827 48.6064 8.80276 48.6015 8.42097 48.5929C7.63007 48.5827 6.84102 48.5143 6.06028 48.3883C5.33229 48.2637 4.62706 48.032 3.96785 47.7008C3.31469 47.3723 2.71895 46.9416 2.20346 46.4251C1.68051 45.9147 1.24513 45.3228 0.914576 44.6727C0.580377 44.0184 0.349092 43.3171 0.228777 42.5932C0.0988465 41.8153 0.0285489 41.0288 0.0184901 40.2404C0.0104828 39.9757 0 39.0946 0 39.0946V10.1072C0 10.1072 0.0111648 9.23956 0.0185532 8.98467C0.0281845 8.19749 0.0980733 7.41217 0.227615 6.63553C0.348152 5.90963 0.579617 5.20629 0.913995 4.54986C1.24334 3.90025 1.6763 3.30786 2.1961 2.79566C2.71532 2.2786 3.31296 1.84566 3.96723 1.51263C4.62492 1.18246 5.32882 0.952376 6.05534 0.830077C6.83864 0.702794 7.63044 0.633979 8.42408 0.624208L9.56369 0.608887H139.359L140.512 0.624823C141.298 0.634108 142.083 0.702309 142.859 0.828847C143.593 0.952681 144.304 1.18437 144.969 1.51631C146.28 2.18745 147.347 3.24927 148.019 4.55293C148.348 5.20482 148.576 5.90242 148.695 6.62205C148.826 7.40507 148.9 8.19655 148.915 8.99019C148.918 9.34556 148.918 9.72728 148.918 10.1072C148.928 10.5777 148.928 11.0256 148.928 11.4772V37.7392C148.928 38.1951 148.928 38.64 148.918 39.0884C148.918 39.4965 148.918 39.8703 148.914 40.2551C148.899 41.0345 148.827 41.8119 148.698 42.5809C148.58 43.31 148.35 44.0168 148.016 44.6765C147.683 45.3195 147.25 45.9063 146.733 46.4153C146.217 46.9345 145.62 47.3678 144.966 47.6984C144.302 48.0322 143.592 48.2647 142.859 48.3883C142.078 48.515 141.289 48.5834 140.498 48.5929C140.128 48.6015 139.741 48.6064 139.365 48.6064L137.996 48.6089L9.56308 48.6064Z" fill="black"></path></g><g id="_Group_"><g id="_Group_2"><g id="_Group_3"><path id="_Path_" d="M30.18 24.9851C30.2076 22.8563 31.3308 20.89 33.1563 19.775C31.9995 18.1335 30.1313 17.1301 28.1155 17.0674C25.9946 16.8462 23.9386 18.3283 22.8578 18.3283C21.7562 18.3283 20.0922 17.0894 18.3003 17.126C15.9428 17.2017 13.7981 18.5012 12.6511 20.549C10.2085 24.7508 12.0305 30.9259 14.3703 34.3222C15.541 35.9853 16.9091 37.843 18.6993 37.7772C20.4512 37.705 21.1054 36.6673 23.2201 36.6673C25.315 36.6673 25.9289 37.7772 27.7554 37.7353C29.6352 37.705 30.8196 36.0648 31.9492 34.3859C32.7903 33.2009 33.4375 31.8912 33.8669 30.5054C31.6343 29.5672 30.1826 27.3936 30.18 24.9851Z" fill="white"></path><path id="_Path_2" d="M26.7293 14.8343C27.7542 13.6118 28.2592 12.0405 28.1369 10.4541C26.571 10.6175 25.1246 11.3611 24.0858 12.5366C23.06 13.6965 22.5404 15.2139 22.6413 16.7546C24.2282 16.7709 25.7349 16.0631 26.7293 14.8343Z" fill="white"></path></g></g><g id="Group_3"><path id="Shape" fill-rule="evenodd" clip-rule="evenodd" d="M46.3457 33.5666H52.3239L53.7583 37.7784H56.3336L50.6712 22.1958H48.0404L42.3779 37.7784H44.9101L46.3457 33.5666ZM51.7045 31.6255H46.9658L49.3031 24.79H49.3685L51.7045 31.6255Z" fill="white"></path><path id="Shape_2" fill-rule="evenodd" clip-rule="evenodd" d="M63.7912 37.8957C66.6613 37.8957 68.5631 35.6274 68.5631 32.097C68.5631 28.5763 66.6501 26.297 63.748 26.297C62.2547 26.2492 60.8558 27.0209 60.1071 28.3055H60.0639V26.4159H57.792V41.5352H60.1391V35.908H60.1934C60.9103 37.2008 62.3077 37.9728 63.7912 37.8957ZM63.1285 28.2852C64.9539 28.2852 66.1503 29.7973 66.1503 32.0975C66.1503 34.4184 64.9539 35.9196 63.1285 35.9196C61.3352 35.9196 60.1289 34.3866 60.1289 32.0975C60.1289 29.8292 61.3352 28.2852 63.1285 28.2852Z" fill="white"></path><path id="Shape_3" fill-rule="evenodd" clip-rule="evenodd" d="M76.3771 37.8957C79.2472 37.8957 81.1491 35.6274 81.1491 32.097C81.1491 28.5763 79.2361 26.297 76.3339 26.297C74.8406 26.2492 73.4417 27.0209 72.693 28.3055H72.6498V26.4159H70.3779V41.5352H72.7251V35.908H72.7794C73.4962 37.2008 74.8936 37.9728 76.3771 37.8957ZM75.7135 28.2852C77.5389 28.2852 78.7352 29.7973 78.7352 32.0975H78.7353C78.7353 34.4184 77.5389 35.9196 75.7135 35.9196C73.9201 35.9196 72.7139 34.3866 72.7139 32.0975C72.7139 29.8292 73.9201 28.2852 75.7135 28.2852Z" fill="white"></path><path id="Path_2" d="M89.4652 33.4362C89.6391 34.9815 91.15 35.9961 93.2146 35.9961C95.193 35.9961 96.6163 34.9815 96.6163 33.5881C96.6163 32.3786 95.7579 31.6544 93.7253 31.1581L91.6927 30.6716C88.8127 29.9805 87.4757 28.6423 87.4757 26.4709C87.4757 23.7823 89.834 21.9355 93.1826 21.9355C96.4966 21.9355 98.7686 23.7823 98.845 26.4709H96.4757C96.3338 24.9158 95.04 23.9771 93.1492 23.9771C91.2585 23.9771 89.9647 24.9268 89.9647 26.3091C89.9647 27.4108 90.791 28.059 92.8125 28.5553L94.5405 28.9768C97.7584 29.7329 99.0954 31.0172 99.0954 33.2964C99.0954 36.2117 96.7581 38.0376 93.0407 38.0376C89.5626 38.0376 87.2142 36.2546 87.0625 33.4361L89.4652 33.4362Z" fill="white"></path><path id="Path_3" d="M104.161 23.7285V26.4171H106.336V28.2638H104.161V34.527C104.161 35.5 104.597 35.9534 105.553 35.9534C105.811 35.9489 106.069 35.9309 106.325 35.8994V37.7351C105.895 37.8149 105.458 37.851 105.021 37.8429C102.706 37.8429 101.803 36.979 101.803 34.7757V28.2638H100.141V26.4171H101.803V23.7285H104.161Z" fill="white"></path><path id="Shape_4" fill-rule="evenodd" clip-rule="evenodd" d="M113.021 26.2798C109.717 26.2798 107.598 28.526 107.598 32.1006C107.598 35.6849 109.696 37.9213 113.021 37.9213C116.347 37.9213 118.445 35.6849 118.445 32.1006C118.445 28.5259 116.336 26.2798 113.021 26.2798ZM113.021 28.2017C114.923 28.2017 116.054 29.6489 116.054 32.101H116.054C116.054 34.5628 114.923 35.9991 113.021 35.9991C111.119 35.9991 109.989 34.5628 109.989 32.101C109.989 29.6599 111.119 28.2017 113.021 28.2017Z" fill="white"></path><path id="Path_4" d="M120.379 26.4158H122.618V28.3495H122.672C122.984 27.1047 124.132 26.248 125.422 26.2969C125.693 26.296 125.962 26.3252 126.226 26.3839V28.5652C125.885 28.4615 125.529 28.4139 125.172 28.4243C124.482 28.3965 123.814 28.6697 123.344 29.1722C122.874 29.6747 122.648 30.3564 122.726 31.0381V37.7767H120.379L120.379 26.4158Z" fill="white"></path><path id="Shape_5" fill-rule="evenodd" clip-rule="evenodd" d="M132.125 37.9213C134.712 37.9213 136.733 36.506 137.049 34.4436L134.82 34.4436C134.393 35.4977 133.319 36.1476 132.18 36.0415C131.326 36.0728 130.499 35.738 129.911 35.1223C129.322 34.5066 129.028 33.6694 129.104 32.8236V32.6826H137.18V31.8837C137.18 28.439 135.19 26.2798 132.027 26.2798C128.81 26.2798 126.734 28.5909 126.734 32.1545C126.734 35.707 128.799 37.9213 132.125 37.9213ZM134.831 31.051L129.114 31.0511C129.112 30.284 129.419 29.548 129.966 29.0065C130.512 28.4651 131.254 28.163 132.026 28.1676C132.792 28.1513 133.53 28.4531 134.063 29.0005C134.595 29.5478 134.874 30.291 134.831 31.051Z" fill="white"></path></g></g></g><g id="_Group_4"><g id="Group_4"><path id="Shape_6" fill-rule="evenodd" clip-rule="evenodd" d="M49.7209 11.7428C49.0338 10.9772 48.0575 10.5771 47.0608 10.6526H44.3379V18.6062H47.0608C49.3062 18.6062 50.6078 17.1456 50.6078 14.6047C50.7335 13.5587 50.408 12.5084 49.7209 11.7428ZM46.931 17.4807H45.5098V11.7758H46.931C47.6396 11.7343 48.3286 12.0291 48.8097 12.5795C49.2907 13.1299 49.5135 13.8784 49.417 14.6201C49.5211 15.365 49.3015 16.1196 48.8192 16.6746C48.3369 17.2295 47.6433 17.5256 46.931 17.4807Z" fill="white"></path><path id="Shape_7" fill-rule="evenodd" clip-rule="evenodd" d="M53.1934 12.9171C52.3231 13.487 51.8341 14.5282 51.9317 15.6041C51.8323 16.6811 52.3208 17.7243 53.1919 18.2954C54.063 18.8665 55.1659 18.8665 56.037 18.2954C56.9081 17.7243 57.3966 16.6811 57.2972 15.6041C57.3948 14.5282 56.9058 13.487 56.0355 12.9171C55.1651 12.3473 54.0638 12.3473 53.1934 12.9171ZM54.6157 13.5444C55.5879 13.5444 56.1418 14.3053 56.1418 15.6064H56.1418C56.1418 16.9127 55.5879 17.6729 54.6157 17.6729C53.6398 17.6729 53.0908 16.9179 53.0908 15.6064C53.0908 14.3053 53.6398 13.5444 54.6157 13.5444Z" fill="white"></path><path id="Path_5" d="M64.4282 18.6073H63.2635L62.0877 14.1866H61.9989L60.8281 18.6073H59.6745L58.1064 12.605H59.2452L60.2643 17.1851H60.3482L61.5178 12.605H62.5948L63.7644 17.1851H63.8532L64.8674 12.605H65.9901L64.4282 18.6073Z" fill="white"></path><path id="Path_6" d="M67.3086 12.6052H68.3894V13.5587H68.4733C68.765 12.8567 69.4468 12.4272 70.1709 12.4893C70.7316 12.4449 71.281 12.6718 71.6641 13.1061C72.0471 13.5404 72.2222 14.1349 72.1399 14.7218V18.6074H71.0172V15.0193C71.0172 14.0547 70.62 13.575 69.7897 13.575C69.4093 13.5563 69.0403 13.7138 68.7792 14.0062C68.5181 14.2985 68.391 14.6966 68.4313 15.0961V18.6075H67.3086L67.3086 12.6052Z" fill="white"></path><path id="Path_7" d="M73.9287 10.2622H75.0514V18.6076H73.9287V10.2622Z" fill="white"></path><path id="Shape_8" fill-rule="evenodd" clip-rule="evenodd" d="M77.8743 12.9172C77.0039 13.487 76.5148 14.5283 76.6123 15.6042C76.513 16.6813 77.0016 17.7245 77.8728 18.2955C78.744 18.8666 79.8468 18.8666 80.718 18.2955C81.5892 17.7245 82.0778 16.6813 81.9785 15.6042C82.076 14.5283 81.5869 13.487 80.7165 12.9172C79.8461 12.3473 78.7447 12.3473 77.8743 12.9172ZM79.2964 13.5444C80.2685 13.5444 80.8225 14.3053 80.8225 15.6064H80.8225C80.8225 16.9127 80.2685 17.6729 79.2964 17.6729C78.3205 17.6729 77.7715 16.9179 77.7715 15.6064C77.7715 14.3053 78.3205 13.5444 79.2964 13.5444Z" fill="white"></path><path id="Shape_9" fill-rule="evenodd" clip-rule="evenodd" d="M85.277 15.1186C83.9236 15.2071 83.1611 15.83 83.1611 16.9104C83.163 17.4227 83.3702 17.9103 83.7315 18.2525C84.0928 18.5948 84.5745 18.7598 85.0574 18.7068C85.7463 18.7404 86.3991 18.3804 86.7661 17.7644H86.855V18.6079H87.9357V14.5068C87.9357 13.2389 87.1313 12.4897 85.7051 12.4897C84.4146 12.4897 83.4955 13.151 83.3807 14.182H84.4677C84.5923 13.7576 85.0266 13.5149 85.6533 13.5149C86.4207 13.5149 86.818 13.8728 86.818 14.5068V15.0249L85.277 15.1186ZM86.819 15.897V16.3988C86.7944 16.7813 86.6238 17.137 86.3461 17.3843C86.0684 17.6317 85.7075 17.7495 85.3459 17.7109C84.7352 17.7109 84.291 17.3966 84.291 16.8563C84.291 16.3272 84.6463 16.046 85.4298 15.9907L86.819 15.897Z" fill="white"></path><path id="Shape_10" fill-rule="evenodd" clip-rule="evenodd" d="M91.7715 12.5058C90.3342 12.5058 89.4102 13.7073 89.4102 15.6039C89.4102 17.5051 90.3244 18.7066 91.7716 18.7065C92.5053 18.7351 93.1934 18.3317 93.558 17.6593H93.6468V18.6076H94.7227V10.2622H93.6V13.5588H93.5161C93.1771 12.8808 92.4973 12.4705 91.7715 12.5058ZM92.0923 17.6454C91.1411 17.6454 90.5723 16.8793 90.5723 15.6062H90.5723C90.5723 14.3435 91.1472 13.5723 92.0923 13.5723C93.0324 13.5723 93.6234 14.3605 93.6234 15.6114C93.6234 16.8683 93.0385 17.6454 92.0923 17.6454Z" fill="white"></path><path id="Shape_11" fill-rule="evenodd" clip-rule="evenodd" d="M100.631 12.9171C99.7606 13.487 99.2716 14.5282 99.3692 15.6041C99.2698 16.6811 99.7583 17.7243 100.629 18.2954C101.501 18.8665 102.603 18.8665 103.475 18.2954C104.346 17.7243 104.834 16.6811 104.735 15.6041C104.832 14.5282 104.343 13.487 103.473 12.9171C102.603 12.3473 101.501 12.3473 100.631 12.9171ZM102.053 13.5444C103.025 13.5444 103.579 14.3053 103.579 15.6064C103.579 16.9127 103.025 17.6729 102.053 17.6729C101.077 17.6729 100.528 16.9179 100.528 15.6064C100.528 14.3053 101.077 13.5444 102.053 13.5444Z" fill="white"></path><path id="Path_8" d="M106.24 12.6052H107.321V13.5587H107.405C107.697 12.8567 108.378 12.4272 109.103 12.4893C109.663 12.4449 110.213 12.6718 110.596 13.1061C110.979 13.5404 111.154 14.1349 111.072 14.7218V18.6074H109.949V15.0193C109.949 14.0547 109.552 13.575 108.721 13.575C108.341 13.5563 107.972 13.7138 107.711 14.0062C107.45 14.2985 107.323 14.6966 107.363 15.0961V18.6075H106.24V12.6052Z" fill="white"></path><path id="Path_9" d="M117.415 11.1099V12.6316H118.647V13.6294H117.415V16.7158C117.415 17.3445 117.66 17.6198 118.219 17.6198C118.362 17.6194 118.505 17.6102 118.647 17.5925V18.5792C118.446 18.6173 118.241 18.6375 118.037 18.6397C116.788 18.6397 116.291 18.1763 116.291 17.0191V13.6293H115.388V12.6315H116.291V11.1099H117.415Z" fill="white"></path><path id="Path_10" d="M120.182 10.2622H121.294V13.5699H121.383C121.689 12.8617 122.383 12.4317 123.118 12.4947C123.675 12.4627 124.217 12.6946 124.596 13.1274C124.975 13.5601 125.151 14.1485 125.077 14.7324V18.6076H123.953V15.0246C123.953 14.0659 123.53 13.5803 122.737 13.5803C122.346 13.5465 121.961 13.6963 121.685 13.9897C121.409 14.2831 121.27 14.6902 121.304 15.102V18.6076H120.182L120.182 10.2622Z" fill="white"></path><path id="Shape_12" fill-rule="evenodd" clip-rule="evenodd" d="M129.158 18.7238C130.27 18.8511 131.308 18.1195 131.623 16.9873L130.542 16.9873C130.273 17.4971 129.738 17.7845 129.189 17.715C128.765 17.7199 128.359 17.5361 128.071 17.2088C127.782 16.8814 127.638 16.4408 127.674 15.9954V15.929H131.691V15.5157C131.691 13.6309 130.736 12.4898 129.153 12.4898C128.393 12.483 127.667 12.8247 127.163 13.4263C126.66 14.028 126.429 14.8304 126.53 15.6257C126.426 16.4189 126.658 17.22 127.164 17.8166C127.67 18.4132 128.399 18.745 129.158 18.7238ZM130.549 15.0529H127.676C127.671 14.639 127.824 14.2404 128.102 13.9477C128.379 13.6549 128.757 13.4927 129.149 13.4979C129.536 13.4886 129.909 13.6521 130.175 13.9482C130.442 14.2443 130.578 14.6455 130.549 15.0529Z" fill="white"></path></g></g></g></svg>