<svg xmlns="http://www.w3.org/2000/svg" width="41" height="41" viewBox="0 0 41 41" fill="none"><path d="M20.4998 0.173828C9.51476 0.173828 0.5 9.18859 0.5 20.1737C0.5 23.7476 1.46703 27.246 3.30148 30.3302L0.560625 38.6308C0.419844 39.052 0.529687 39.5166 0.843281 39.8302C1.15914 40.1461 1.62695 40.254 2.04265 40.1129L10.3433 37.372C13.4275 39.2065 16.9258 40.1735 20.4998 40.1735C31.4849 40.1735 40.4997 31.1587 40.4997 20.1737C40.4997 9.18859 31.4849 0.173828 20.4998 0.173828ZM20.4998 35.4079C18.5612 35.4079 16.9842 33.8308 16.9842 31.8922C16.9842 29.9537 18.5612 28.3766 20.4998 28.3766C22.4384 28.3766 24.0154 29.9537 24.0154 31.8922C24.0154 33.8309 22.4384 35.4079 20.4998 35.4079ZM25.4402 18.5475L22.8436 21.1441V23.6893C22.8436 24.9813 21.7919 26.033 20.4998 26.033C19.2078 26.033 18.1561 24.9813 18.1561 23.6893V21.1441C18.1561 19.8922 18.6436 18.7157 19.5294 17.8299L22.126 15.2333C22.7262 14.633 22.8436 14.0252 22.8436 13.25C22.8436 11.8984 21.7438 10.7987 20.3922 10.7987C19.1597 10.7987 18.1561 11.8023 18.1561 13.0348C18.1561 14.3269 17.1044 15.3786 15.8123 15.3786C14.5203 15.3786 13.4686 14.3269 13.4686 13.0348C13.4686 9.2171 16.5745 6.11125 20.3922 6.11125C24.329 6.11125 27.5309 9.31328 27.5309 13.25C27.531 15.4648 26.8064 17.1813 25.4402 18.5475Z" fill="#FC472E"></path></svg>