<svg xmlns="http://www.w3.org/2000/svg" width="160" height="45" viewBox="0 0 160 45" fill="none"><g id="Board-logo-primary"><path id="Board-Copy-14" fill-rule="evenodd" clip-rule="evenodd" d="M75.1666 27.8388C75.1666 24.9751 73.8001 22.7971 71.7101 21.4661C73.2374 20.1351 74.1618 18.2798 74.1618 15.9404C74.1618 11.0601 70.1828 7.87378 65.2793 7.87378H54.2666V36.1071H66.0831C71.1072 36.1071 75.1666 32.8401 75.1666 27.8388ZM60.8662 13.7405H65.4045C66.8774 13.7405 67.8329 14.8168 67.8329 16.3071C67.8329 17.7975 66.8376 18.8738 65.4045 18.8738H60.8662V13.7405ZM66.2709 30.2405C67.8842 30.2405 68.9329 29.0912 68.9329 27.4905C68.9329 25.8897 67.8842 24.7405 66.2709 24.7405H60.8662V30.2405H66.2709ZM77.3662 25.8404C77.3662 31.8418 82.1011 36.4737 87.9995 36.4737C93.898 36.4737 98.6329 31.8418 98.6329 25.8404C98.6329 19.839 93.898 15.207 87.9995 15.207C82.1011 15.207 77.3662 19.839 77.3662 25.8404ZM87.8167 30.6071C90.4073 30.6071 92.4001 28.7085 92.4001 25.8404C92.4001 22.9723 90.4073 21.0737 87.8167 21.0737C85.2262 21.0737 83.2334 22.9723 83.2334 25.8404C83.2334 28.7085 85.2262 30.6071 87.8167 30.6071ZM113.3 27.3071V27.9881C113.3 30.4716 111.818 32.0738 109.176 32.0738C107.854 32.0738 106.333 31.5531 106.333 30.0309C106.333 27.6676 109.576 27.3071 112.459 27.3071H113.3ZM104.762 22.2016L101.43 18.6032C103.758 16.3795 107.09 15.207 110.341 15.207C117.045 15.207 119.533 18.5224 119.533 25.8404V35.9885H113.512V33.8457H113.392C112.388 35.5034 110.1 36.4737 107.732 36.4737C104.561 36.4737 100.467 34.8969 100.467 30.1665C100.467 24.3444 107.491 23.3741 113.312 23.3741V23.0506C113.312 21.0695 111.746 20.1396 109.699 20.1396C107.812 20.1396 105.966 21.0695 104.762 22.2016ZM137.867 15.5737C133.477 15.5737 130.79 17.2288 129.984 19.9263V15.9763H123.934V36.1071H129.984V27.008C129.984 23.0221 133.533 22.0156 136.034 22.4182L137.867 15.5737ZM153.468 7.87378H159.5V36.2725H153.468V34.3657C152.141 35.9073 150.171 36.8404 147.477 36.8404C142.209 36.8404 137.866 32.1749 137.866 26.1301C137.866 20.0852 142.209 15.4197 147.477 15.4197C150.171 15.4197 152.141 16.3528 153.468 17.8945V7.87378ZM153.267 26.0237C153.267 29.0668 151.264 30.9737 148.5 30.9737C145.736 30.9737 143.733 29.0668 143.733 26.0237C143.733 22.9807 145.736 21.0737 148.5 21.0737C151.264 21.0737 153.267 22.9807 153.267 26.0237Z" fill="black"></path><rect id="Base-Copy-10" y="0.173828" width="44" height="44" rx="11" fill="url(#paint0_linear_573_7446)"></rect><g id="Group-20-Copy-10"><g id="Oval"><g id="path-2-link"><circle id="path-2" cx="22" cy="22.1738" r="16.5" fill="white"></circle></g><g id="path-2-link_2"><circle id="path-2_2" cx="22" cy="22.1738" r="16.5" fill="white"></circle></g></g><path id="Combined-Shape" d="M38.4883 21.4405C38.4961 21.6497 38.5 21.8599 38.5 22.071C38.5 31.2405 31.1127 38.6738 22 38.6738C12.8873 38.6738 5.5 31.2405 5.5 22.071C5.5 21.8599 5.50391 21.6497 5.51168 21.4405C5.84106 30.3178 13.0971 37.4129 22 37.4129C30.9029 37.4129 38.1589 30.3178 38.4883 21.4405Z" fill="#EDEDED"></path><g id="Group-18-Copy-2"><path id="Combined-Shape_2" d="M8.51491 23.96C8.51614 23.9358 8.51744 23.9117 8.51882 23.8875C8.50633 23.6506 8.5 23.4121 8.5 23.1721C8.5 15.7172 14.604 9.67383 22.1337 9.67383C29.6634 9.67383 35.7674 15.7172 35.7674 23.1721C35.7674 23.4366 35.7597 23.6993 35.7445 23.96H31.6709C31.3621 17.8939 26.2966 13.0694 20.0929 13.0694C13.9139 13.0694 8.86403 17.8555 8.51882 23.8875C8.5201 23.9117 8.52144 23.9359 8.52284 23.96H8.51491H8.51491Z" fill="#007AFF"></path><path id="Combined-Shape_3" d="M20.6129 21.8936L34.5617 16.0114C35.495 15.6178 36.2341 16.8583 35.4324 17.4729L23.3708 26.7192C23.3444 26.7394 23.3172 26.7579 23.2894 26.7746C22.8019 27.1389 22.2057 27.3406 21.5801 27.3406C20.0131 27.3406 18.7432 26.0848 18.7432 24.5363C18.7432 23.3671 19.4736 22.3364 20.5516 21.9222C20.5715 21.912 20.5919 21.9024 20.6129 21.8936Z" fill="white"></path><path id="Path" d="M20.9571 22.6862C20.174 22.9442 19.6094 23.6749 19.6094 24.5361C19.6094 25.6127 20.492 26.4855 21.5807 26.4855C22.0583 26.4855 22.4963 26.3176 22.8374 26.0381L22.8405 26.0437L34.9022 16.7974L20.9534 22.6795L20.9571 22.6862Z" fill="black"></path></g></g></g><defs><linearGradient id="paint0_linear_573_7446" x1="43.6503" y1="44.1738" x2="43.6503" y2="0.873129" gradientUnits="userSpaceOnUse"><stop stop-color="#004CF3"></stop><stop offset="1" stop-color="#0F8BFD"></stop></linearGradient></defs></svg>