<svg xmlns="http://www.w3.org/2000/svg" width="162" height="49" viewBox="0 0 162 49" fill="none"><g id="google-play-badge"><rect id="Rectangle" y="0.391602" width="161.067" height="48" rx="7.5" fill="black"></rect><path id="Path" d="M57.0599 11.7611C57.1002 12.6349 56.7716 13.4868 56.1504 14.1195C55.4536 14.819 54.4832 15.1965 53.4825 15.1572C52.4767 15.179 51.5065 14.7948 50.8025 14.0959C49.3328 12.6341 49.3328 10.2985 50.8025 8.83662C51.9071 7.78701 53.5518 7.48483 54.9741 8.07012C55.4114 8.24492 55.8015 8.51526 56.114 8.8602L55.4713 9.48519C54.983 8.91321 54.246 8.59856 53.4825 8.63615C52.1748 8.64494 51.0337 9.50077 50.6928 10.7284C50.3519 11.9561 50.8949 13.2541 52.0203 13.9018C53.1457 14.5494 54.5771 14.3877 55.5198 13.5063C55.8902 13.1114 56.105 12.6018 56.1262 12.0677H53.4825V11.2186H57.0114C57.039 11.3983 57.0552 11.5795 57.0599 11.7611Z" fill="white" stroke="white" stroke-width="0.5"></path><path id="Path_2" d="M61.6659 8.68616H58.8095V11.0246H61.412V11.9108H58.8095V14.2492H61.6659V15.16H57.9844V7.77539H61.6659V8.68616Z" fill="white" stroke="white" stroke-width="0.5"></path><path id="Path_3" d="M65.2897 15.16H64.4399V8.68616H62.5859V7.77539H67.1878V8.68616H65.2897V15.16Z" fill="white" stroke="white" stroke-width="0.5"></path><path id="Path_4" d="M70.976 15.16V7.77539H71.6847V15.16H70.976Z" fill="white" stroke="white" stroke-width="0.5"></path><path id="Path_5" d="M75.8191 15.16H75.1311V8.68616H73.6299V7.77539H77.3114V8.68616H75.8191V15.16Z" fill="white" stroke="white" stroke-width="0.5"></path><g id="Shape"><path fill-rule="evenodd" clip-rule="evenodd" d="M85.5937 15.16C86.5799 15.16 87.5257 14.7732 88.2227 14.0849C88.9253 13.3935 89.306 12.4458 89.2743 11.4672C89.2962 10.4904 88.9169 9.54634 88.2227 8.84958C87.5339 8.14943 86.5825 7.76114 85.5937 7.77658C84.603 7.75099 83.6477 8.14089 82.9648 8.84958C81.5625 10.3204 81.5625 12.614 82.9648 14.0849C83.6618 14.7732 84.6076 15.16 85.5937 15.16ZM85.5944 14.2972C84.8623 14.2972 84.1608 14.0077 83.6465 13.4936C82.5775 12.3473 82.5775 10.5837 83.6465 9.43739C84.1608 8.92322 84.8623 8.63379 85.5944 8.63379C86.3265 8.63379 87.028 8.92322 87.5422 9.43739C88.6113 10.5837 88.6113 12.3473 87.5422 13.4936C87.028 14.0077 86.3265 14.2972 85.5944 14.2972Z" fill="white"></path><path d="M88.2227 14.0849L88.0474 13.9067L88.047 13.907L88.2227 14.0849ZM89.2743 11.4672L89.024 11.4616L89.0244 11.4753L89.2743 11.4672ZM88.2227 8.84958L88.0445 9.02491L88.0456 9.02603L88.2227 8.84958ZM85.5937 7.77658L85.5873 8.02671L85.5976 8.02654L85.5937 7.77658ZM82.9648 8.84958L82.7848 8.6761L82.7838 8.67707L82.9648 8.84958ZM82.9648 14.0849L82.7837 14.2575L82.7891 14.2628L82.9648 14.0849ZM83.6465 13.4936L83.4636 13.6642L83.4698 13.6704L83.6465 13.4936ZM83.6465 9.43739L83.4697 9.2605L83.4637 9.26688L83.6465 9.43739ZM87.5422 9.43739L87.7251 9.26677L87.719 9.26061L87.5422 9.43739ZM87.5422 13.4936L87.7191 13.6705L87.725 13.6641L87.5422 13.4936ZM88.047 13.907C87.3971 14.5488 86.5147 14.91 85.5937 14.91V15.41C86.6452 15.41 87.6542 14.9977 88.3984 14.2628L88.047 13.907ZM89.0244 11.4753C89.0539 12.3836 88.7005 13.2639 88.0474 13.9067L88.3981 14.2631C89.15 13.5231 89.5581 12.508 89.5242 11.4591L89.0244 11.4753ZM88.0456 9.02603C88.6921 9.67492 89.0447 10.5534 89.0244 11.4616L89.5242 11.4728C89.5476 10.4274 89.1417 9.41776 88.3998 8.67313L88.0456 9.02603ZM85.5976 8.02654C86.5186 8.01217 87.404 8.37387 88.0445 9.02491L88.4009 8.67425C87.6638 7.92499 86.6465 7.51011 85.5898 7.52661L85.5976 8.02654ZM83.1448 9.02305C83.7787 8.36529 84.6661 8.0027 85.5873 8.02649L85.6002 7.52666C84.5399 7.49927 83.5167 7.9165 82.7848 8.6761L83.1448 9.02305ZM83.1457 13.9124C81.8355 12.5381 81.8355 10.3964 83.1457 9.02208L82.7838 8.67707C81.2895 10.2445 81.2895 12.69 82.7838 14.2574L83.1457 13.9124ZM85.5937 14.91C84.6728 14.91 83.7903 14.5488 83.1404 13.907L82.7891 14.2628C83.5333 14.9977 84.5423 15.41 85.5937 15.41V14.91ZM83.4698 13.6704C84.0312 14.2318 84.7965 14.5472 85.5944 14.5472V14.0472C84.9281 14.0472 84.2903 13.7837 83.8233 13.3168L83.4698 13.6704ZM83.4637 9.26688C82.3051 10.5092 82.3051 12.4218 83.4637 13.6641L83.8294 13.3231C82.8498 12.2728 82.8498 10.6582 83.8294 9.6079L83.4637 9.26688ZM85.5944 8.38379C84.7965 8.38379 84.0312 8.6992 83.4698 9.26061L83.8233 9.61417C84.2903 9.14724 84.9281 8.88379 85.5944 8.88379V8.38379ZM87.719 9.26061C87.1575 8.6992 86.3922 8.38379 85.5944 8.38379V8.88379C86.2607 8.88379 86.8985 9.14724 87.3654 9.61417L87.719 9.26061ZM87.725 13.6641C88.8837 12.4218 88.8837 10.5092 87.725 9.26688L87.3594 9.6079C88.3389 10.6582 88.3389 12.2728 87.3594 13.3231L87.725 13.6641ZM85.5944 14.5472C86.3922 14.5472 87.1575 14.2318 87.719 13.6704L87.3654 13.3168C86.8985 13.7837 86.2607 14.0472 85.5944 14.0472V14.5472Z" fill="white"></path></g><path id="Path_6" d="M91.1201 15.16V7.77539H92.0465L94.955 13.5231V12.0954V7.77539H95.722V15.16H94.9252L91.8871 9.14154V10.5569V15.16H91.1201Z" fill="white" stroke="white" stroke-width="0.5"></path><path id="Shape_2" fill-rule="evenodd" clip-rule="evenodd" d="M56.9646 28.8249V30.9808H62.1133C62.0325 31.9962 61.6125 32.9543 60.9214 33.6996C59.877 34.769 58.4305 35.3435 56.9408 35.2806C53.7813 35.2806 51.22 32.7066 51.22 29.5315C51.22 26.3564 53.7813 23.7825 56.9408 23.7825C58.3953 23.7608 59.7998 24.3159 60.8499 25.3276L62.3635 23.8065C60.9286 22.3802 58.9826 21.5945 56.9646 21.6266C54.0791 21.5138 51.3635 22.9964 49.8874 25.4905C48.4112 27.9846 48.4112 31.0904 49.8874 33.5845C51.3635 36.0786 54.0791 37.5613 56.9646 37.4484C59.0267 37.5312 61.0258 36.725 62.4589 35.2326C63.7104 33.851 64.3773 32.0338 64.3181 30.1663C64.3224 29.7168 64.2865 29.2679 64.2109 28.8249H56.9646ZM70.1707 27.2553C67.3667 27.2619 65.0989 29.5517 65.1055 32.3695C65.1121 35.1874 67.3905 37.4664 70.1946 37.4598C72.9986 37.4532 75.2664 35.1635 75.2598 32.3456C75.2794 30.9854 74.7488 29.6756 73.7894 28.7159C72.83 27.7563 71.5241 27.2292 70.1707 27.2553ZM76.2139 32.3695C76.2073 29.5517 78.4751 27.2619 81.2791 27.2553C82.6325 27.2292 83.9384 27.7563 84.8978 28.7159C85.8572 29.6756 86.3878 30.9854 86.3682 32.3456C86.3748 35.1635 84.107 37.4532 81.303 37.4598C78.4989 37.4664 76.2205 35.1874 76.2139 32.3695ZM78.2897 33.6864C78.8339 34.8313 80.0193 35.5255 81.2787 35.4369C82.0693 35.4185 82.8189 35.08 83.3575 34.4982C83.896 33.9163 84.1779 33.1405 84.1391 32.3468C84.136 31.078 83.3615 29.9401 82.1859 29.4772C81.0104 29.0144 79.6728 29.3207 78.8128 30.2497C77.9529 31.1787 77.7454 32.5415 78.2897 33.6864ZM67.1803 33.6864C67.7246 34.8313 68.9099 35.5255 70.1694 35.4369C70.9599 35.4185 71.7095 35.08 72.2481 34.4982C72.7867 33.9163 73.0685 33.1405 73.0297 32.3468C73.0267 31.078 72.2521 29.9401 71.0766 29.4772C69.901 29.0144 68.5634 29.3207 67.7034 30.2497C66.8435 31.1787 66.6361 32.5415 67.1803 33.6864ZM106.628 27.2568C108.604 27.33 110.33 28.6213 110.966 30.5026L111.217 31.0296L104.435 33.8443C104.858 34.8194 105.833 35.4332 106.89 35.3893C107.909 35.3993 108.857 34.866 109.381 33.988L111.109 35.1857C109.878 37.0598 107.567 37.8959 105.43 37.24C103.292 36.584 101.84 34.5926 101.861 32.3471C101.779 31.0255 102.244 29.7285 103.147 28.7642C104.05 27.7999 105.31 27.2543 106.628 27.2568ZM104.053 32.2037C104.004 31.4522 104.258 30.7125 104.758 30.1515C105.258 29.5905 105.962 29.2552 106.711 29.2214C107.496 29.1733 108.233 29.6028 108.582 30.3114L104.053 32.2037ZM100.776 37.1365H98.5469V22.165H100.776V37.1365ZM94.9008 28.3938H94.8173C94.1436 27.6227 93.1687 27.1853 92.1477 27.1961C89.4424 27.3279 87.3164 29.5705 87.3164 32.2924C87.3164 35.0142 89.4424 37.2568 92.1477 37.3886C93.1707 37.4093 94.1496 36.9701 94.8173 36.1909H94.9008V36.9215C94.9008 38.8738 93.8639 39.9158 92.1953 39.9158C91.0554 39.8906 90.0433 39.1763 89.6329 38.1073L87.7022 38.9097C88.4329 40.7542 90.22 41.9546 92.1953 41.928C94.8054 41.928 96.9626 40.3829 96.9626 36.6221V27.5554H94.9008V28.3938ZM89.4561 32.3532C89.4561 33.9851 90.7188 35.3357 92.3396 35.4373C93.1142 35.4073 93.8428 35.0602 94.3561 34.4764C94.8694 33.8927 95.1227 33.1233 95.057 32.3472C95.1158 31.5738 94.8598 30.8095 94.3476 30.2292C93.8354 29.649 93.1108 29.3025 92.3396 29.269C90.7188 29.3706 89.4561 30.7212 89.4561 32.3532ZM121.407 22.1663H116.067V37.1377H118.296V31.4606H121.407C123.138 31.5856 124.794 30.7282 125.697 29.2388C126.601 27.7494 126.601 25.8775 125.697 24.3881C124.794 22.8987 123.138 22.0413 121.407 22.1663ZM118.297 29.3527H121.408L121.455 29.3767C122.366 29.3767 123.208 28.8882 123.664 28.0951C124.12 27.3021 124.12 26.3251 123.664 25.532C123.208 24.739 122.366 24.2505 121.455 24.2505H118.297V29.3527ZM135.16 27.2096C133.501 27.1068 131.941 28.0063 131.191 29.4973L133.158 30.3237C133.564 29.5882 134.362 29.1613 135.196 29.2338C135.767 29.1667 136.342 29.3331 136.79 29.6957C137.238 30.0583 137.523 30.5867 137.579 31.1621V31.3058C136.863 30.9272 136.065 30.7299 135.255 30.7309C133.134 30.7309 130.965 31.9286 130.965 34.1085C131.007 35.0446 131.425 35.9234 132.124 36.5441C132.823 37.1649 133.742 37.4745 134.671 37.4022C135.81 37.4655 136.894 36.9069 137.508 35.941H137.579V37.1387H139.725V31.3777C139.725 28.7547 137.746 27.2336 135.208 27.2336L135.16 27.2096ZM133.146 34.1423C133.146 35.0406 134.16 35.4119 134.887 35.4119L134.934 35.4358C136.281 35.4088 137.401 34.3855 137.556 33.0404C136.938 32.6935 136.238 32.5198 135.53 32.5373C134.41 32.5373 133.146 32.9446 133.146 34.1423ZM147.545 27.5581L144.995 34.0497H144.923L142.277 27.5581H139.894L143.862 36.6368L141.598 41.6791H143.922L150.024 27.5581H147.545ZM129.738 37.1365H127.521V22.165H129.738V37.1365Z" fill="white"></path><path id="Fill 1" fill-rule="evenodd" clip-rule="evenodd" d="M32.2137 20.0698L14.2457 10.8097C13.7363 10.5484 13.2664 10.4877 12.8857 10.599L27.6032 24.3921L32.2137 20.0698Z" fill="#00F076"></path><path id="Fill 2" fill-rule="evenodd" clip-rule="evenodd" d="M31.9855 29.0062L37.7754 25.6389C38.9494 24.9537 38.9494 23.8388 37.7754 23.1553L31.9641 19.7754L27.6113 24.3794L31.9855 29.0062Z" fill="#FFD100"></path><path id="Fill 3" fill-rule="evenodd" clip-rule="evenodd" d="M12.8667 10.5459C12.3192 10.7066 11.9648 11.2266 11.9648 12.0135L11.9682 36.777C11.9682 37.5551 12.3116 38.0672 12.843 38.2382L27.6113 24.381L12.8667 10.5459Z" fill="#00CEFF"></path><path id="Fill 4" fill-rule="evenodd" clip-rule="evenodd" d="M12.8857 38.177C13.268 38.2983 13.746 38.2416 14.2669 37.9739L32.2137 28.7227L27.593 24.3916L12.8857 38.177Z" fill="#F63448"></path><mask id="mask0_573_7131" style="mask-type:alpha" maskUnits="userSpaceOnUse" x="12" y="24" width="21" height="15"><path id="Fill 4_2" fill-rule="evenodd" clip-rule="evenodd" d="M12.8857 38.177C13.268 38.2983 13.746 38.2416 14.2669 37.9739L32.2137 28.7227L27.593 24.3916L12.8857 38.177Z" fill="white"></path></mask><g mask="url(#mask0_573_7131)"></g></g></svg>