<svg xmlns="http://www.w3.org/2000/svg" width="41" height="41" viewBox="0 0 41 41" fill="none"><g clip-path="url(#clip0_573_7435)"><path fill-rule="evenodd" clip-rule="evenodd" d="M35.8145 8.89263V2.72957C35.8145 1.31859 34.6697 0.173828 33.2587 0.173828C31.8511 0.173828 30.703 1.31859 30.703 2.72957V4.12391C27.6448 2.14721 24.0075 0.985808 20.094 0.985808C9.27205 0.985808 0.5 9.75785 0.5 20.5798C0.5 31.4018 9.27205 40.1738 20.094 40.1738C30.916 40.1738 39.688 31.4018 39.688 20.5798C39.688 16.1971 38.2471 12.1572 35.8145 8.89263ZM20.0941 38.4301C10.2305 38.4301 2.20389 30.4068 2.20389 20.5399C2.20389 10.6764 10.2305 2.64977 20.0941 2.64977C24.7164 2.64977 29.1124 4.4268 32.4069 7.57489V2.72963C32.4069 2.25709 32.7896 1.87772 33.2588 1.87772C33.7313 1.87772 34.1107 2.25709 34.1107 2.72963V10.5499H26.2904C25.8179 10.5499 25.4385 10.1672 25.4385 9.69802C25.4385 9.2288 25.8179 8.84611 26.2904 8.84611H31.2721C28.2838 5.97755 24.2971 4.35359 20.0941 4.35359C11.169 4.35359 3.90772 11.6148 3.90772 20.5399C3.90772 29.4651 11.169 36.7263 20.0941 36.7263C29.0192 36.7263 36.2804 29.4684 36.2804 20.5399C36.2804 17.9875 35.6681 15.4152 34.5101 13.099L36.0342 12.337C37.312 14.886 37.9843 17.7246 37.9843 20.5399C37.9843 30.4068 29.9576 38.4301 20.0941 38.4301ZM21.7346 21.0158C21.7712 20.876 21.7979 20.7329 21.7979 20.5798C21.7979 19.9509 21.4551 19.4085 20.946 19.1123V6.94923H19.2421V19.1123C18.7363 19.4085 18.3902 19.9509 18.3902 20.5798C18.3902 21.5216 19.1523 22.2837 20.094 22.2837C20.2471 22.2837 20.3902 22.257 20.53 22.2204L26.307 27.9975L27.5117 26.7928L21.7346 21.0158Z" fill="#FB8E14"></path></g><defs><clipPath id="clip0_573_7435"><rect width="40" height="40" fill="white" transform="translate(0.5 0.173828)"></rect></clipPath></defs></svg>