<svg xmlns="http://www.w3.org/2000/svg" width="41" height="41" viewBox="0 0 41 41" fill="none"><g clip-path="url(#clip0_573_7441)"><g clip-path="url(#clip1_573_7441)"><path d="M28.3261 1.71229V40.1738H40.5V1.71229C40.5 0.862621 39.8112 0.173828 38.9615 0.173828H29.8645C29.0149 0.173828 28.3261 0.862621 28.3261 1.71229ZM0.5 24.7892V40.1738H12.6739V24.7892C12.6739 23.9395 11.9851 23.2508 11.1355 23.2508H2.03846C1.18879 23.2508 0.5 23.9395 0.5 24.7892ZM14.413 13.0166V40.1738H26.587V13.0166C26.587 12.167 25.8982 11.4782 25.0485 11.4782H15.9515C15.1018 11.4782 14.413 12.167 14.413 13.0166Z" fill="#00C187"></path></g></g><defs><clipPath id="clip0_573_7441"><rect width="40" height="40" fill="white" transform="translate(0.5 0.173828)"></rect></clipPath><clipPath id="clip1_573_7441"><rect width="40" height="40" fill="white" transform="translate(0.5 0.173828)"></rect></clipPath></defs></svg>